<svg xmlns="http://www.w3.org/2000/svg" viewBox="0 0 400 400" width="400" height="400" preserveAspectRatio="xMidYMid meet" style="width: 100%; height: 100%; transform: translate3d(0px, 0px, 0px); content-visibility: visible;"><defs><clipPath id="__lottie_element_148"><rect width="400" height="400" x="0" y="0"></rect></clipPath></defs><g clip-path="url(#__lottie_element_148)"><g transform="matrix(-0.06451945751905441,0,0,-0.06451945751905441,371.9900817871094,134.47299194335938)" opacity="1" style="display: block;"><g opacity="0" transform="matrix(1,0,0,1,0,0)"><g opacity="1" transform="matrix(1,0,0,1,0,0)"><path fill="rgb(153,194,109)" fill-opacity="1" d=" M3.0616169991140216e-16,-5 C3.0616169991140216e-16,-5 -5.877852439880371,-8.090169906616211 -5.877852439880371,-8.090169906616211 C-5.877852439880371,-8.090169906616211 -4.755282402038574,-1.5450849533081055 -4.755282402038574,-1.5450849533081055 C-4.755282402038574,-1.5450849533081055 -9.510564804077148,3.090169906616211 -9.510564804077148,3.090169906616211 C-9.510564804077148,3.090169906616211 -2.9389262199401855,4.0450849533081055 -2.9389262199401855,4.0450849533081055 C-2.9389262199401855,4.0450849533081055 -1.8369700935892946e-15,10 -1.8369700935892946e-15,10 C-1.8369700935892946e-15,10 2.9389262199401855,4.0450849533081055 2.9389262199401855,4.0450849533081055 C2.9389262199401855,4.0450849533081055 9.510564804077148,3.090169906616211 9.510564804077148,3.090169906616211 C9.510564804077148,3.090169906616211 4.755282402038574,-1.5450849533081055 4.755282402038574,-1.5450849533081055 C4.755282402038574,-1.5450849533081055 5.877852439880371,-8.090169906616211 5.877852439880371,-8.090169906616211 C5.877852439880371,-8.090169906616211 3.0616169991140216e-16,-5 3.0616169991140216e-16,-5z"></path></g></g><g opacity="0" transform="matrix(0.5,0,0,0.5,0.041999999433755875,0)"><g opacity="1" transform="matrix(1,0,0,1,0,0)"><path fill="rgb(153,194,109)" fill-opacity="1" d=" M3.0616169991140216e-16,-5 C3.0616169991140216e-16,-5 -5.877852439880371,-8.090169906616211 -5.877852439880371,-8.090169906616211 C-5.877852439880371,-8.090169906616211 -4.755282402038574,-1.5450849533081055 -4.755282402038574,-1.5450849533081055 C-4.755282402038574,-1.5450849533081055 -9.510564804077148,3.090169906616211 -9.510564804077148,3.090169906616211 C-9.510564804077148,3.090169906616211 -2.9389262199401855,4.0450849533081055 -2.9389262199401855,4.0450849533081055 C-2.9389262199401855,4.0450849533081055 -1.8369700935892946e-15,10 -1.8369700935892946e-15,10 C-1.8369700935892946e-15,10 2.9389262199401855,4.0450849533081055 2.9389262199401855,4.0450849533081055 C2.9389262199401855,4.0450849533081055 9.510564804077148,3.090169906616211 9.510564804077148,3.090169906616211 C9.510564804077148,3.090169906616211 4.755282402038574,-1.5450849533081055 4.755282402038574,-1.5450849533081055 C4.755282402038574,-1.5450849533081055 5.877852439880371,-8.090169906616211 5.877852439880371,-8.090169906616211 C5.877852439880371,-8.090169906616211 3.0616169991140216e-16,-5 3.0616169991140216e-16,-5z"></path></g></g><g opacity="0" transform="matrix(0.25,0,0,0.25,0.08399999886751175,0)"><g opacity="1" transform="matrix(1,0,0,1,0,0)"><path fill="rgb(153,194,109)" fill-opacity="1" d=" M3.0616169991140216e-16,-5 C3.0616169991140216e-16,-5 -5.877852439880371,-8.090169906616211 -5.877852439880371,-8.090169906616211 C-5.877852439880371,-8.090169906616211 -4.755282402038574,-1.5450849533081055 -4.755282402038574,-1.5450849533081055 C-4.755282402038574,-1.5450849533081055 -9.510564804077148,3.090169906616211 -9.510564804077148,3.090169906616211 C-9.510564804077148,3.090169906616211 -2.9389262199401855,4.0450849533081055 -2.9389262199401855,4.0450849533081055 C-2.9389262199401855,4.0450849533081055 -1.8369700935892946e-15,10 -1.8369700935892946e-15,10 C-1.8369700935892946e-15,10 2.9389262199401855,4.0450849533081055 2.9389262199401855,4.0450849533081055 C2.9389262199401855,4.0450849533081055 9.510564804077148,3.090169906616211 9.510564804077148,3.090169906616211 C9.510564804077148,3.090169906616211 4.755282402038574,-1.5450849533081055 4.755282402038574,-1.5450849533081055 C4.755282402038574,-1.5450849533081055 5.877852439880371,-8.090169906616211 5.877852439880371,-8.090169906616211 C5.877852439880371,-8.090169906616211 3.0616169991140216e-16,-5 3.0616169991140216e-16,-5z"></path></g></g><g opacity="0" transform="matrix(0.125,0,0,0.125,0.12600000202655792,0)"><g opacity="1" transform="matrix(1,0,0,1,0,0)"><path fill="rgb(153,194,109)" fill-opacity="1" d=" M3.0616169991140216e-16,-5 C3.0616169991140216e-16,-5 -5.877852439880371,-8.090169906616211 -5.877852439880371,-8.090169906616211 C-5.877852439880371,-8.090169906616211 -4.755282402038574,-1.5450849533081055 -4.755282402038574,-1.5450849533081055 C-4.755282402038574,-1.5450849533081055 -9.510564804077148,3.090169906616211 -9.510564804077148,3.090169906616211 C-9.510564804077148,3.090169906616211 -2.9389262199401855,4.0450849533081055 -2.9389262199401855,4.0450849533081055 C-2.9389262199401855,4.0450849533081055 -1.8369700935892946e-15,10 -1.8369700935892946e-15,10 C-1.8369700935892946e-15,10 2.9389262199401855,4.0450849533081055 2.9389262199401855,4.0450849533081055 C2.9389262199401855,4.0450849533081055 9.510564804077148,3.090169906616211 9.510564804077148,3.090169906616211 C9.510564804077148,3.090169906616211 4.755282402038574,-1.5450849533081055 4.755282402038574,-1.5450849533081055 C4.755282402038574,-1.5450849533081055 5.877852439880371,-8.090169906616211 5.877852439880371,-8.090169906616211 C5.877852439880371,-8.090169906616211 3.0616169991140216e-16,-5 3.0616169991140216e-16,-5z"></path></g></g><g opacity="1" transform="matrix(1,0,0,1,0,0)"><g opacity="1" transform="matrix(1,0,0,1,0,0)"><path fill="rgb(153,194,109)" fill-opacity="1" d=" M3.0616169991140216e-16,-5 C3.0616169991140216e-16,-5 -5.877852439880371,-8.090169906616211 -5.877852439880371,-8.090169906616211 C-5.877852439880371,-8.090169906616211 -4.755282402038574,-1.5450849533081055 -4.755282402038574,-1.5450849533081055 C-4.755282402038574,-1.5450849533081055 -9.510564804077148,3.090169906616211 -9.510564804077148,3.090169906616211 C-9.510564804077148,3.090169906616211 -2.9389262199401855,4.0450849533081055 -2.9389262199401855,4.0450849533081055 C-2.9389262199401855,4.0450849533081055 -1.8369700935892946e-15,10 -1.8369700935892946e-15,10 C-1.8369700935892946e-15,10 2.9389262199401855,4.0450849533081055 2.9389262199401855,4.0450849533081055 C2.9389262199401855,4.0450849533081055 9.510564804077148,3.090169906616211 9.510564804077148,3.090169906616211 C9.510564804077148,3.090169906616211 4.755282402038574,-1.5450849533081055 4.755282402038574,-1.5450849533081055 C4.755282402038574,-1.5450849533081055 5.877852439880371,-8.090169906616211 5.877852439880371,-8.090169906616211 C5.877852439880371,-8.090169906616211 3.0616169991140216e-16,-5 3.0616169991140216e-16,-5z"></path></g></g></g><g transform="matrix(0.9396940469741821,0.3420162796974182,-0.3420162796974182,0.9396940469741821,374,124.5)" opacity="1" style="display: none;"><g opacity="1" transform="matrix(0.9396926164627075,-0.3420201539993286,0.3420201539993286,0.9396926164627075,0,0)"><path fill="rgb(153,194,109)" fill-opacity="1" d=" M1.8360150507063755e-17,-0.29984402656555176 C-6.1200500311578164e-18,0.09994800388813019 -0.08779454231262207,0.12083881348371506 0.2633836269378662,-0.3625164330005646 C-0.08779454231262207,0.12083881348371506 -0.0950561985373497,0.03088563121855259 0.2851685881614685,-0.09265689551830292 C-0.0950561985373497,0.03088563121855259 -0.14205454289913177,-0.046156320720911026 0.42616361379623413,0.13846896588802338 C-0.14205454289913177,-0.046156320720911026 -0.05874796211719513,-0.08085963129997253 0.1762438863515854,0.2425788938999176 C-0.05874796211719513,-0.08085963129997253 -9.145968115334479e-18,-0.14936499297618866 2.743790517318405e-17,0.4480949640274048 C-9.145968115334479e-18,-0.14936499297618866 0.05874796211719513,-0.08085963129997253 -0.1762438863515854,0.2425788938999176 C0.05874796211719513,-0.08085963129997253 0.14205454289913177,-0.046156320720911026 -0.42616361379623413,0.13846896588802338 C0.14205454289913177,-0.046156320720911026 0.0950561985373497,0.03088563121855259 -0.2851685881614685,-0.09265689551830292 C0.0950561985373497,0.03088563121855259 0.08779454231262207,0.12083881348371506 -0.2633836269378662,-0.3625164330005646 C0.08779454231262207,0.12083881348371506 -6.1200500311578164e-18,0.09994800388813019 1.8360150507063755e-17,-0.29984402656555176z"></path></g></g><g transform="matrix(0.9397370219230652,0.34189820289611816,-0.34189820289611816,0.9397370219230652,343,54.5)" opacity="1" style="display: none;"><g opacity="1" transform="matrix(0.9396926164627075,-0.3420201539993286,0.3420201539993286,0.9396926164627075,0,0)"><path fill="rgb(153,194,109)" fill-opacity="1" d=" M6.377002025200777e-17,-1.0414435863494873 C-2.1256673968789667e-17,0.3471478521823883 -0.30166909098625183,0.41521188616752625 0.9050072431564331,-1.2456356287002563 C-0.30166909098625183,0.41521188616752625 -0.33015722036361694,0.10727457702159882 0.9904716610908508,-0.32182374596595764 C-0.33015722036361694,0.10727457702159882 -0.48811084032058716,-0.15859684348106384 1.4643325805664062,0.47579050064086914 C-0.48811084032058716,-0.15859684348106384 -0.20404838025569916,-0.28084850311279297 0.6121451258659363,0.8425455093383789 C-0.20404838025569916,-0.28084850311279297 -3.142627891933913e-17,-0.5132300853729248 9.427883675801739e-17,1.5396902561187744 C-3.142627891933913e-17,-0.5132300853729248 0.20404838025569916,-0.28084850311279297 -0.6121451258659363,0.8425455093383789 C0.20404838025569916,-0.28084850311279297 0.48811084032058716,-0.15859684348106384 -1.4643325805664062,0.47579050064086914 C0.48811084032058716,-0.15859684348106384 0.33015722036361694,0.10727457702159882 -0.9904716610908508,-0.32182374596595764 C0.33015722036361694,0.10727457702159882 0.30166909098625183,0.41521188616752625 -0.9050072431564331,-1.2456356287002563 C0.30166909098625183,0.41521188616752625 -2.1256673968789667e-17,0.3471478521823883 6.377002025200777e-17,-1.0414435863494873z"></path></g></g><g transform="matrix(0.99201500415802,0.12611985206604004,-0.12611985206604004,0.99201500415802,101.62737274169922,70.64344787597656)" opacity="1" style="display: block;"><g opacity="1" transform="matrix(1,0,0,1,145.76499938964844,31.149999618530273)"><path fill="rgb(143,143,143)" fill-opacity="1" d=" M13.906000137329102,-18.06999969482422 C13.906000137329102,-18.06999969482422 -13.906000137329102,-12.699999809265137 -13.906000137329102,-12.699999809265137 C-13.906000137329102,-12.699999809265137 -12.055000305175781,1.2000000476837158 -12.055000305175781,1.2000000476837158 C-12.055000305175781,1.2000000476837158 -9.21500015258789,18.06999969482422 -9.21500015258789,18.06999969482422 C-9.21500015258789,18.06999969482422 4.843999862670898,8.279999732971191 4.843999862670898,8.279999732971191 C4.843999862670898,8.279999732971191 13.906000137329102,-18.06999969482422 13.906000137329102,-18.06999969482422z"></path></g><g opacity="1" transform="matrix(1,0,0,1,144.11500549316406,10.704999923706055)"><path fill="rgb(221,221,220)" fill-opacity="1" d=" M-15.555000305175781,-10.454999923706055 C-15.555000305175781,-10.454999923706055 -7.855000019073486,10.454999923706055 -7.855000019073486,10.454999923706055 C-7.855000019073486,10.454999923706055 15.555000305175781,2.375 15.555000305175781,2.375 C15.555000305175781,2.375 -15.555000305175781,-10.454999923706055 -15.555000305175781,-10.454999923706055z"></path></g><g opacity="1" transform="matrix(1,0,0,1,152.92999267578125,62.97999954223633)"><path fill="rgb(143,143,143)" fill-opacity="1" d=" M-31.29525375366211,14.281380653381348 C-31.29525375366211,14.281380653381348 -11.590994834899902,9.5423583984375 -11.590994834899902,9.5423583984375 C-11.590994834899902,9.5423583984375 -0.13085520267486572,15.796215057373047 -0.13085520267486572,15.796215057373047 C-0.13085520267486572,15.796215057373047 13.399999618530273,-10.630000114440918 13.399999618530273,-10.630000114440918 C13.399999618530273,-10.630000114440918 -2.5,-5.320000171661377 -2.5,-5.320000171661377 C-2.5,-5.320000171661377 -31.29525375366211,14.281380653381348 -31.29525375366211,14.281380653381348z"></path></g><g opacity="1" transform="matrix(1,0,0,1,149.09500122070312,53.154998779296875)"><path fill="rgb(196,196,196)" fill-opacity="1" d=" M1.5149999856948853,-13.725000381469727 C1.5149999856948853,-13.725000381469727 -17.235000610351562,-13.725000381469727 -17.235000610351562,-13.725000381469727 C-17.235000610351562,-13.725000381469727 -23.20842933654785,21.834108352661133 -23.20842933654785,21.834108352661133 C-23.20842933654785,21.834108352661133 17.235000610351562,-0.8050000071525574 17.235000610351562,-0.8050000071525574 C17.235000610351562,-0.8050000071525574 1.5149999856948853,-13.725000381469727 1.5149999856948853,-13.725000381469727z"></path></g><g opacity="1" transform="matrix(1,0,0,1,21.209999084472656,70.83999633789062)"><path fill="rgb(196,196,196)" fill-opacity="1" d=" M13.930000305175781,-13.180000305175781 C13.930000305175781,-13.180000305175781 -9.029999732971191,-6.889999866485596 -9.029999732971191,-6.889999866485596 C-9.029999732971191,-6.889999866485596 -15.729999542236328,10.640000343322754 -15.729999542236328,10.640000343322754 C-15.729999542236328,10.640000343322754 16.13602066040039,11.622401237487793 16.13602066040039,11.622401237487793 C16.13602066040039,11.622401237487793 15.729999542236328,-1.7799999713897705 15.729999542236328,-1.7799999713897705 C15.729999542236328,-1.7799999713897705 13.930000305175781,-13.180000305175781 13.930000305175781,-13.180000305175781z"></path></g><g opacity="1" transform="matrix(1,0,0,1,20.229999542236328,54.845001220703125)"><path fill="rgb(143,143,143)" fill-opacity="1" d=" M11.930000305175781,-13.204999923706055 C11.930000305175781,-13.204999923706055 -19.979999542236328,-4.824999809265137 -19.979999542236328,-4.824999809265137 C-19.979999542236328,-4.824999809265137 -8.050000190734863,9.104999542236328 -8.050000190734863,9.104999542236328 C-8.050000190734863,9.104999542236328 24.12557601928711,15.38818359375 24.12557601928711,15.38818359375 C24.12557601928711,15.38818359375 19.979999542236328,2.815000057220459 19.979999542236328,2.815000057220459 C19.979999542236328,2.815000057220459 11.930000305175781,-13.204999923706055 11.930000305175781,-13.204999923706055z"></path></g><g opacity="1" transform="matrix(1,0,0,1,16.565000534057617,31.950000762939453)"><path fill="rgb(221,221,220)" fill-opacity="1" d=" M15.6850004196167,-13.279999732971191 C15.6850004196167,-13.279999732971191 9.375,-11.920000076293945 9.375,-11.920000076293945 C9.375,-11.920000076293945 4.565000057220459,-18.06999969482422 4.565000057220459,-18.06999969482422 C4.565000057220459,-18.06999969482422 -16.315000534057617,18.06999969482422 -16.315000534057617,18.06999969482422 C-16.315000534057617,18.06999969482422 16.315000534057617,13.5600004196167 16.315000534057617,13.5600004196167 C16.315000534057617,13.5600004196167 15.6850004196167,-13.279999732971191 15.6850004196167,-13.279999732971191z"></path></g><g opacity="1" transform="matrix(1,0,0,1,29.530000686645508,80.70500183105469)"><path fill="rgb(143,143,143)" fill-opacity="1" d=" M20.770000457763672,-7.90500020980835 C20.770000457763672,-7.90500020980835 -24.049999237060547,0.7749999761581421 -24.049999237060547,0.7749999761581421 C-24.049999237060547,0.7749999761581421 -5.540414333343506,13.753582954406738 -5.540414333343506,13.753582954406738 C-5.540414333343506,13.753582954406738 24.049999237060547,1.6150000095367432 24.049999237060547,1.6150000095367432 C24.049999237060547,1.6150000095367432 20.770000457763672,-7.90500020980835 20.770000457763672,-7.90500020980835z"></path></g></g><g transform="matrix(0.8441954851150513,0.5360353589057922,-0.5360353589057922,0.8441954851150513,331.1028747558594,98.86298370361328)" opacity="1" style="display: block;"><g opacity="1" transform="matrix(1,0,0,1,15.013999938964844,77.05999755859375)"><path fill="rgb(138,102,81)" fill-opacity="1" d=" M-4.631391525268555,24.400407791137695 C-4.631391525268555,24.400407791137695 3.994999885559082,16.829999923706055 3.994999885559082,16.829999923706055 C3.994999885559082,16.829999923706055 11.364999771118164,4.289999961853027 11.364999771118164,4.289999961853027 C11.364999771118164,4.289999961853027 10.824999809265137,-24.360000610351562 10.824999809265137,-24.360000610351562 C10.824999809265137,-24.360000610351562 -6.315000057220459,-6.940000057220459 -6.315000057220459,-6.940000057220459 C-6.315000057220459,-6.940000057220459 -11.364999771118164,13.09000015258789 -11.364999771118164,13.09000015258789 C-11.364999771118164,13.09000015258789 -4.631391525268555,24.400407791137695 -4.631391525268555,24.400407791137695z"></path></g><g opacity="1" transform="matrix(1,0,0,1,31.40399932861328,47.06999969482422)"><path fill="rgb(53,120,93)" fill-opacity="1" d=" M24.174999237060547,-46.81999969482422 C24.174999237060547,-46.81999969482422 21.53499984741211,-44.869998931884766 21.53499984741211,-44.869998931884766 C21.53499984741211,-44.869998931884766 9.755000114440918,-24.020000457763672 9.755000114440918,-24.020000457763672 C9.755000114440918,-24.020000457763672 4.864999771118164,-17.100000381469727 4.864999771118164,-17.100000381469727 C4.864999771118164,-17.100000381469727 6.105999946594238,-3.059999942779541 6.105999946594238,-3.059999942779541 C6.105999946594238,-3.059999942779541 -5.02400016784668,4.460000038146973 -5.02400016784668,4.460000038146973 C-5.02400016784668,4.460000038146973 -3.3540000915527344,9.970000267028809 -3.3540000915527344,9.970000267028809 C-3.3540000915527344,9.970000267028809 -10.244999885559082,25.989999771118164 -10.244999885559082,25.989999771118164 C-10.244999885559082,25.989999771118164 -16.65399932861328,30.170000076293945 -16.65399932861328,30.170000076293945 C-16.65399932861328,30.170000076293945 -24.174999237060547,46.65999984741211 -24.174999237060547,46.65999984741211 C-24.174999237060547,46.65999984741211 -12.394000053405762,46.81999969482422 -12.394000053405762,46.81999969482422 C-12.394000053405762,46.81999969482422 0.5350000262260437,10.149999618530273 0.5350000262260437,10.149999618530273 C0.5350000262260437,10.149999618530273 12.446000099182129,0.14000000059604645 12.446000099182129,0.14000000059604645 C12.446000099182129,0.14000000059604645 11.986000061035156,-17.40999984741211 11.986000061035156,-17.40999984741211 C11.986000061035156,-17.40999984741211 24.174999237060547,-46.81999969482422 24.174999237060547,-46.81999969482422z"></path></g><g opacity="1" transform="matrix(1,0,0,1,21.399999618530273,64.38500213623047)"><path fill="rgb(83,175,138)" fill-opacity="1" d=" M1.2100000381469727,12.03499984741211 C1.2100000381469727,12.03499984741211 6.64900016784668,-7.34499979019165 6.64900016784668,-7.34499979019165 C6.64900016784668,-7.34499979019165 4.980999946594238,-12.854999542236328 4.980999946594238,-12.854999542236328 C4.980999946594238,-12.854999542236328 -6.64900016784668,12.854999542236328 -6.64900016784668,12.854999542236328 C-6.64900016784668,12.854999542236328 1.2100000381469727,12.03499984741211 1.2100000381469727,12.03499984741211z"></path></g><g opacity="1" transform="matrix(1,0,0,1,45.92399978637695,15.109999656677246)"><path fill="rgb(83,175,138)" fill-opacity="1" d=" M7.014999866485596,-12.90999984741211 C7.014999866485596,-12.90999984741211 9.654999732971191,-14.859999656677246 9.654999732971191,-14.859999656677246 C9.654999732971191,-14.859999656677246 5.224999904632568,-14.520000457763672 5.224999904632568,-14.520000457763672 C5.224999904632568,-14.520000457763672 -9.654999732971191,14.859999656677246 -9.654999732971191,14.859999656677246 C-9.654999732971191,14.859999656677246 -3.5250000953674316,11.270000457763672 -3.5250000953674316,11.270000457763672 C-3.5250000953674316,11.270000457763672 7.014999866485596,-12.90999984741211 7.014999866485596,-12.90999984741211z"></path></g><g opacity="1" transform="matrix(1,0,0,1,13.3149995803833,69.86499786376953)"><path fill="rgb(223,188,164)" fill-opacity="1" d=" M-15.63100528717041,11.997719764709473 C-15.63100528717041,11.997719764709473 -8.586000442504883,-8.015000343322754 -8.586000442504883,-8.015000343322754 C-8.586000442504883,-8.015000343322754 10.3149995803833,-20.28499984741211 10.3149995803833,-20.28499984741211 C10.3149995803833,-20.28499984741211 13.0649995803833,-18.334999084472656 13.0649995803833,-18.334999084472656 C13.0649995803833,-18.334999084472656 9.293999671936035,-10.175000190734863 9.293999671936035,-10.175000190734863 C9.293999671936035,-10.175000190734863 1.475000023841858,-3.325000047683716 1.475000023841858,-3.325000047683716 C1.475000023841858,-3.325000047683716 1.434999942779541,7.375 1.434999942779541,7.375 C1.434999942779541,7.375 -1.8849999904632568,14.645000457763672 -1.8849999904632568,14.645000457763672 C-1.8849999904632568,14.645000457763672 -9.666000366210938,20.28499984741211 -9.666000366210938,20.28499984741211 C-9.666000366210938,20.28499984741211 -15.63100528717041,11.997719764709473 -15.63100528717041,11.997719764709473z"></path></g><g opacity="1" transform="matrix(1,0,0,1,28.350000381469727,72.70999908447266)"><path fill="rgb(195,151,122)" fill-opacity="1" d=" M9.34000015258789,-20.31999969482422 C9.34000015258789,-20.31999969482422 7.920000076293945,11.850000381469727 7.920000076293945,11.850000381469727 C7.920000076293945,11.850000381469727 -9.34000015258789,21.18000030517578 -9.34000015258789,21.18000030517578 C-9.34000015258789,21.18000030517578 -1.9700000286102295,-21.18000030517578 -1.9700000286102295,-21.18000030517578 C-1.9700000286102295,-21.18000030517578 9.34000015258789,-20.31999969482422 9.34000015258789,-20.31999969482422z"></path></g></g><g transform="matrix(0.9441516995429993,0.32951104640960693,-0.32951104640960693,0.9441516995429993,53.867244720458984,-60.62570571899414)" opacity="1" style="display: block;"><g opacity="1" transform="matrix(1,0,0,1,276.5199890136719,164.84500122070312)"><path fill="rgb(115,141,86)" fill-opacity="1" d=" M27.918087005615234,13.374518394470215 C27.918087005615234,13.374518394470215 9.842084884643555,-22.469722747802734 9.842084884643555,-22.469722747802734 C9.842084884643555,-22.469722747802734 -8.37216854095459,-12.819035530090332 -8.37216854095459,-12.819035530090332 C-8.37216854095459,-12.819035530090332 -26.530000686645508,28.895000457763672 -26.530000686645508,28.895000457763672 C-26.530000686645508,28.895000457763672 27.918087005615234,13.374518394470215 27.918087005615234,13.374518394470215z"></path></g><g opacity="1" transform="matrix(1,0,0,1,249.61000061035156,167.47500610351562)"><path fill="rgb(153,194,108)" fill-opacity="1" d=" M-16.100000381469727,-21.05500030517578 C-16.100000381469727,-21.05500030517578 -18.399999618530273,1.034999966621399 -18.399999618530273,1.034999966621399 C-18.399999618530273,1.034999966621399 5.921000003814697,21.05500030517578 5.921000003814697,21.05500030517578 C5.921000003814697,21.05500030517578 18.76852798461914,-15.527237892150879 18.76852798461914,-15.527237892150879 C18.76852798461914,-15.527237892150879 -16.100000381469727,-21.05500030517578 -16.100000381469727,-21.05500030517578z"></path></g><g opacity="1" transform="matrix(1,0,0,1,253.09500122070312,171.05999755859375)"><path fill="rgb(90,117,60)" fill-opacity="1" d=" M-15.895000457763672,27.010000228881836 C-15.895000457763672,27.010000228881836 18.524999618530273,32.279998779296875 18.524999618530273,32.279998779296875 C18.524999618530273,32.279998779296875 39.494998931884766,17.469999313354492 39.494998931884766,17.469999313354492 C39.494998931884766,17.469999313354492 51.05812072753906,6.665513038635254 51.05812072753906,6.665513038635254 C51.05812072753906,6.665513038635254 2.434999942779541,17.469999313354492 2.434999942779541,17.469999313354492 C2.434999942779541,17.469999313354492 -15.895000457763672,-1.9600000381469727 -15.895000457763672,-1.9600000381469727 C-15.895000457763672,-1.9600000381469727 -45.23500061035156,-32.279998779296875 -45.23500061035156,-32.279998779296875 C-45.23500061035156,-32.279998779296875 -15.895000457763672,27.010000228881836 -15.895000457763672,27.010000228881836z"></path></g><g opacity="1" transform="matrix(1,0,0,1,289.54998779296875,166.98500061035156)"><path fill="rgb(53,120,93)" fill-opacity="1" d=" M3.7886197566986084,-28.78415298461914 C3.7886197566986084,-28.78415298461914 -3.8057339191436768,-24.144420623779297 -3.8057339191436768,-24.144420623779297 C-3.8057339191436768,-24.144420623779297 11.98139762878418,12.142285346984863 11.98139762878418,12.142285346984863 C11.98139762878418,12.142285346984863 -17.93000030517578,36.35499954223633 -17.93000030517578,36.35499954223633 C-17.93000030517578,36.35499954223633 -10.130999565124512,37.05500030517578 -10.130999565124512,37.05500030517578 C-10.130999565124512,37.05500030517578 21.844013214111328,13.740825653076172 21.844013214111328,13.740825653076172 C21.844013214111328,13.740825653076172 3.7886197566986084,-28.78415298461914 3.7886197566986084,-28.78415298461914z"></path></g></g><g transform="matrix(0.9995179176330566,-0.03104771487414837,0.03104771487414837,0.9995179176330566,105.08846282958984,134.69546508789062)" opacity="1" style="display: block;"><g opacity="1" transform="matrix(1,0,0,1,121.91999816894531,62.3380012512207)"><path fill="rgb(115,141,86)" fill-opacity="1" d=" M-6.440000057220459,8.734999656677246 C-6.440000057220459,8.734999656677246 11.373000144958496,6.49399995803833 11.373000144958496,6.49399995803833 C11.373000144958496,6.49399995803833 4.756999969482422,-23.840999603271484 4.756999969482422,-23.840999603271484 C4.756999969482422,-23.840999603271484 -6.440000057220459,8.734999656677246 -6.440000057220459,8.734999656677246z"></path></g><g opacity="1" transform="matrix(1,0,0,1,37.724998474121094,71.28299713134766)"><path fill="rgb(115,141,86)" fill-opacity="1" d=" M-1.315000057220459,-30.280000686645508 C-1.315000057220459,-30.280000686645508 -11.255000114440918,-31.780000686645508 -11.255000114440918,-31.780000686645508 C-11.255000114440918,-31.780000686645508 -37.474998474121094,-34.529998779296875 -37.474998474121094,-34.529998779296875 C-37.474998474121094,-34.529998779296875 -2.4649999141693115,-6.28000020980835 -2.4649999141693115,-6.28000020980835 C-2.4649999141693115,-6.28000020980835 0.004999999888241291,2.0199999809265137 0.004999999888241291,2.0199999809265137 C0.004999999888241291,2.0199999809265137 15.984999656677246,34.529998779296875 15.984999656677246,34.529998779296875 C15.984999656677246,34.529998779296875 37.474998474121094,13.569999694824219 37.474998474121094,13.569999694824219 C37.474998474121094,13.569999694824219 -1.315000057220459,-30.280000686645508 -1.315000057220459,-30.280000686645508z"></path></g><g opacity="1" transform="matrix(1,0,0,1,39.209999084472656,82.4280014038086)"><path fill="rgb(68,96,36)" fill-opacity="1" d=" M-16.209999084472656,-4.114999771118164 C-16.209999084472656,-4.114999771118164 -4.639999866485596,16.184999465942383 -4.639999866485596,16.184999465942383 C-4.639999866485596,16.184999465942383 7.480000019073486,21.625 7.480000019073486,21.625 C7.480000019073486,21.625 16.209999084472656,9.194999694824219 16.209999084472656,9.194999694824219 C16.209999084472656,9.194999694824219 -1.4800000190734863,-21.625 -1.4800000190734863,-21.625 C-1.4800000190734863,-21.625 -16.209999084472656,-4.114999771118164 -16.209999084472656,-4.114999771118164z"></path></g><g opacity="1" transform="matrix(1,0,0,1,91.64399719238281,50.4640007019043)"><path fill="rgb(83,175,138)" fill-opacity="1" d=" M-22.94499969482422,-10.973999977111816 C-8.090999603271484,4.545000076293945 6.761000156402588,20.06399917602539 21.614999771118164,35.582000732421875 C22.058000564575195,12.746999740600586 22.500999450683594,-10.086999893188477 22.94499969482422,-32.922000885009766 C22.19499969482422,-33.42499923706055 -8.314000129699707,-35.582000732421875 -8.314000129699707,-35.582000732421875 C-10.732999801635742,-33.47200012207031 -13.697999954223633,-30.44300079345703 -16.423999786376953,-26.325000762939453 C-20.32900047302246,-20.422000885009766 -22.091999053955078,-14.77299976348877 -22.94499969482422,-10.973999977111816z"></path></g><g opacity="1" transform="matrix(1,0,0,1,72.19499969482422,53.65299987792969)"><path fill="rgb(83,175,138)" fill-opacity="1" d=" M-4.735000133514404,-29.520999908447266 C-4.735000133514404,-29.520999908447266 -7.945000171661377,-15.951000213623047 -7.945000171661377,-15.951000213623047 C-7.945000171661377,-15.951000213623047 -38.025001525878906,-2.5999999046325684 -38.025001525878906,-2.5999999046325684 C-38.025001525878906,-2.5999999046325684 7.65500020980835,29.1299991607666 7.65500020980835,29.1299991607666 C7.65500020980835,29.1299991607666 7.934999942779541,29.520999908447266 7.934999942779541,29.520999908447266 C7.934999942779541,29.520999908447266 38.025001525878906,19.219999313354492 38.025001525878906,19.219999313354492 C38.025001525878906,19.219999313354492 -4.735000133514404,-29.520999908447266 -4.735000133514404,-29.520999908447266z"></path></g><g opacity="1" transform="matrix(1,0,0,1,37.08000183105469,33.62300109863281)"><path fill="rgb(113,200,166)" fill-opacity="1" d=" M-11.029999732971191,15.039999961853027 C-11.029999732971191,15.039999961853027 -2.9100000858306885,17.43000030517578 -2.9100000858306885,17.43000030517578 C-2.9100000858306885,17.43000030517578 32.63999938964844,4.079999923706055 32.63999938964844,4.079999923706055 C32.63999938964844,4.079999923706055 -18.049999237060547,-17.43000030517578 -18.049999237060547,-17.43000030517578 C-18.049999237060547,-17.43000030517578 -32.63999938964844,-1.4600000381469727 -32.63999938964844,-1.4600000381469727 C-32.63999938964844,-1.4600000381469727 -11.029999732971191,15.039999961853027 -11.029999732971191,15.039999961853027z"></path></g><g opacity="1" transform="matrix(1,0,0,1,97.19499969482422,3.4130001068115234)"><path fill="rgb(53,120,93)" fill-opacity="1" d=" M0.13500000536441803,0.05000000074505806 C0.13500000536441803,0.05000000074505806 0.07500000298023224,-0.07000000029802322 0.07500000298023224,-0.07000000029802322 C0.07500000298023224,-0.07000000029802322 -0.13500000536441803,0.07000000029802322 -0.13500000536441803,0.07000000029802322 C-0.13500000536441803,0.07000000029802322 0.13500000536441803,0.05000000074505806 0.13500000536441803,0.05000000074505806z"></path></g><g opacity="1" transform="matrix(1,0,0,1,59.05500030517578,76.40799713134766)"><path fill="rgb(53,120,93)" fill-opacity="1" d=" M17.834999084472656,1.774999976158142 C17.834999084472656,1.774999976158142 -54.6150016784668,-44.244998931884766 -54.6150016784668,-44.244998931884766 C-54.6150016784668,-44.244998931884766 -58.80500030517578,-39.654998779296875 -58.80500030517578,-39.654998779296875 C-58.80500030517578,-39.654998779296875 16.145000457763672,8.444999694824219 16.145000457763672,8.444999694824219 C16.145000457763672,8.444999694824219 43.755001068115234,44.244998931884766 43.755001068115234,44.244998931884766 C43.755001068115234,44.244998931884766 58.80500030517578,-3.5250000953674316 58.80500030517578,-3.5250000953674316 C58.80500030517578,-3.5250000953674316 17.834999084472656,1.774999976158142 17.834999084472656,1.774999976158142z"></path></g><g opacity="1" transform="matrix(1,0,0,1,44.375,21.753000259399414)"><path fill="rgb(53,120,93)" fill-opacity="1" d=" M26.004396438598633,2.9634876251220703 C26.004396438598633,2.9634876251220703 6.465000152587891,-8.979999542236328 6.465000152587891,-8.979999542236328 C6.465000152587891,-8.979999542236328 -21.869718551635742,-16.6127872467041 -21.869718551635742,-16.6127872467041 C-21.869718551635742,-16.6127872467041 -25.344999313354492,-5.559999942779541 -25.344999313354492,-5.559999942779541 C-25.344999313354492,-5.559999942779541 25.344999313354492,15.949999809265137 25.344999313354492,15.949999809265137 C25.344999313354492,15.949999809265137 26.004396438598633,2.9634876251220703 26.004396438598633,2.9634876251220703z"></path></g><g opacity="1" transform="matrix(1,0,0,1,77.56400299072266,18.527999877929688)"><path fill="rgb(53,120,93)" fill-opacity="1" d=" M-7.760000228881836,18.277999877929688 C-2.5859999656677246,11.192000389099121 2.5859999656677246,4.105000019073486 7.760000228881836,-2.9809999465942383 C5.764999866485596,-8.079999923706055 3.7699999809265137,-13.178999900817871 1.7740000486373901,-18.277999877929688 C-1.3289999961853027,-13.401000022888184 -4.432000160217285,-8.52299976348877 -7.535999774932861,-3.6459999084472656 C-7.611000061035156,3.6619999408721924 -7.684999942779541,10.970000267028809 -7.760000228881836,18.277999877929688z"></path></g></g><g transform="matrix(1,0,0,1,64.82999420166016,348.6199951171875)" opacity="1" style="display: block;"><g opacity="0.1" transform="matrix(1,0,0,1,126.2750015258789,39.935001373291016)"><path fill="rgb(43,43,43)" fill-opacity="1" d=" M-126.2750015258789,0.6850000023841858 C-126.2750015258789,0.6850000023841858 -27.295000076293945,11.444999694824219 -27.295000076293945,11.444999694824219 C-27.295000076293945,11.444999694824219 126.2750015258789,-0.7749999761581421 126.2750015258789,-0.7749999761581421 C126.2750015258789,-0.7749999761581421 -19.405000686645508,-11.444999694824219 -19.405000686645508,-11.444999694824219 C-19.405000686645508,-11.444999694824219 -126.2750015258789,0.6850000023841858 -126.2750015258789,0.6850000023841858z"></path></g><g opacity="1" transform="matrix(1,0,0,1,142.10499572753906,13.8149995803833)"><path fill="rgb(53,120,93)" fill-opacity="1" d=" M-14.55762767791748,-6.707182884216309 C-14.55762767791748,-6.707182884216309 -14.805000305175781,12.404999732971191 -14.805000305175781,12.404999732971191 C-14.805000305175781,12.404999732971191 2.075000047683716,7.195000171661377 2.075000047683716,7.195000171661377 C2.075000047683716,7.195000171661377 11.664999961853027,-0.0949999988079071 11.664999961853027,-0.0949999988079071 C11.664999961853027,-0.0949999988079071 15.052371978759766,-14.012917518615723 15.052371978759766,-14.012917518615723 C15.052371978759766,-14.012917518615723 -14.55762767791748,-6.707182884216309 -14.55762767791748,-6.707182884216309z"></path></g><g opacity="1" transform="matrix(1,0,0,1,65.5,13.270000457763672)"><path fill="rgb(53,120,93)" fill-opacity="1" d=" M-10.720000267028809,-13.020000457763672 C-10.720000267028809,-13.020000457763672 -15.789999961853027,13.020000457763672 -15.789999961853027,13.020000457763672 C-15.789999961853027,13.020000457763672 -1.1799999475479126,12.949999809265137 -1.1799999475479126,12.949999809265137 C-1.1799999475479126,12.949999809265137 12.680000305175781,4.179999828338623 12.680000305175781,4.179999828338623 C12.680000305175781,4.179999828338623 15.789999961853027,-2.371000051498413 15.789999961853027,-2.371000051498413 C15.789999961853027,-2.371000051498413 -10.720000267028809,-13.020000457763672 -10.720000267028809,-13.020000457763672z"></path></g><g opacity="1" transform="matrix(1,0,0,1,152.31500244140625,24.46500015258789)"><path fill="rgb(83,175,138)" fill-opacity="1" d=" M1.4539999961853027,-10.744999885559082 C1.4539999961853027,-10.744999885559082 -25.016000747680664,1.7549999952316284 -25.016000747680664,1.7549999952316284 C-25.016000747680664,1.7549999952316284 -25.016000747680664,8.855999946594238 -25.016000747680664,8.855999946594238 C-25.016000747680664,8.855999946594238 -2.555999994277954,10.744999885559082 -2.555999994277954,10.744999885559082 C-2.555999994277954,10.744999885559082 25.014999389648438,8.855999946594238 25.014999389648438,8.855999946594238 C25.014999389648438,8.855999946594238 1.4539999961853027,-10.744999885559082 1.4539999961853027,-10.744999885559082z"></path></g><g opacity="1" transform="matrix(1,0,0,1,152.31500244140625,36.70000076293945)"><path fill="rgb(53,120,93)" fill-opacity="1" d=" M-25.014999389648438,-3.380000114440918 C-25.014999389648438,-3.380000114440918 25.014999389648438,-3.380000114440918 25.014999389648438,-3.380000114440918 C25.014999389648438,-3.380000114440918 25.014999389648438,3.380000114440918 25.014999389648438,3.380000114440918 C25.014999389648438,3.380000114440918 -25.014999389648438,3.380000114440918 -25.014999389648438,3.380000114440918 C-25.014999389648438,3.380000114440918 -25.014999389648438,-3.380000114440918 -25.014999389648438,-3.380000114440918z"></path></g><g opacity="1" transform="matrix(1,0,0,1,65.79499816894531,28.950000762939453)"><path fill="rgb(83,175,138)" fill-opacity="1" d=" M12.385000228881836,-11.5 C12.385000228881836,-11.5 18.545000076293945,8.119999885559082 18.545000076293945,8.119999885559082 C18.545000076293945,8.119999885559082 1.215000033378601,11.5 1.215000033378601,11.5 C1.215000033378601,11.5 -18.545000076293945,8.119999885559082 -18.545000076293945,8.119999885559082 C-18.545000076293945,8.119999885559082 -16.084999084472656,-2.6600000858306885 -16.084999084472656,-2.6600000858306885 C-16.084999084472656,-2.6600000858306885 12.385000228881836,-11.5 12.385000228881836,-11.5z"></path></g><g opacity="1" transform="matrix(1,0,0,1,65.79499816894531,40.45000076293945)"><path fill="rgb(53,120,93)" fill-opacity="1" d=" M-18.545000076293945,-3.380000114440918 C-18.545000076293945,-3.380000114440918 18.545000076293945,-3.380000114440918 18.545000076293945,-3.380000114440918 C18.545000076293945,-3.380000114440918 18.545000076293945,3.380000114440918 18.545000076293945,3.380000114440918 C18.545000076293945,3.380000114440918 -18.545000076293945,3.380000114440918 -18.545000076293945,3.380000114440918 C-18.545000076293945,3.380000114440918 -18.545000076293945,-3.380000114440918 -18.545000076293945,-3.380000114440918z"></path></g><g opacity="1" transform="matrix(1,0,0,1,0,0)"><path fill="rgb(114,140,86)" fill-opacity="1" d="M0 0"></path><path stroke-linecap="butt" stroke-linejoin="miter" fill-opacity="0" stroke-miterlimit="4" stroke="rgb(42,42,42)" stroke-opacity="1" stroke-width="4" d="M0 0"></path></g></g><g transform="matrix(0.9997242093086243,0.02348455600440502,-0.02348455600440502,0.9997242093086243,100.20413208007812,195.66732788085938)" opacity="1" style="display: block;"><g opacity="1" transform="matrix(1,0,0,1,73.75499725341797,87.73500061035156)"><path fill="rgb(115,141,86)" fill-opacity="1" d=" M66.30957794189453,-87.47688293457031 C66.30957794189453,-87.47688293457031 57.93952178955078,-86.19110870361328 57.93952178955078,-86.19110870361328 C57.93952178955078,-86.19110870361328 15.664999961853027,-11.074999809265137 15.664999961853027,-11.074999809265137 C15.664999961853027,-11.074999809265137 -10.725000381469727,-62.5359992980957 -10.725000381469727,-62.5359992980957 C-10.725000381469727,-62.5359992980957 -31.575000762939453,-55.54499816894531 -31.575000762939453,-55.54499816894531 C-31.575000762939453,-55.54499816894531 -71.1050033569336,54.525001525878906 -71.1050033569336,54.525001525878906 C-71.1050033569336,54.525001525878906 -17.684999465942383,86.8550033569336 -17.684999465942383,86.8550033569336 C-17.684999465942383,86.8550033569336 -17.4950008392334,86.99500274658203 -17.4950008392334,86.99500274658203 C-17.4950008392334,86.99500274658203 71.1050033569336,52.1150016784668 71.1050033569336,52.1150016784668 C71.1050033569336,52.1150016784668 66.30957794189453,-87.47688293457031 66.30957794189453,-87.47688293457031z"></path></g><g opacity="1" transform="matrix(1,0,0,1,96.47000122070312,83.69999694824219)"><path fill="rgb(153,194,108)" fill-opacity="1" d=" M25.950000762939453,-77.23999786376953 C25.950000762939453,-77.23999786376953 8.470000267028809,-46.709999084472656 8.470000267028809,-46.709999084472656 C8.470000267028809,-46.709999084472656 -0.4410000145435333,-54.69900131225586 -0.4410000145435333,-54.69900131225586 C-0.4410000145435333,-54.69900131225586 -13.65999984741211,-65.2699966430664 -13.65999984741211,-65.2699966430664 C-13.65999984741211,-65.2699966430664 -33.441001892089844,-58.5 -33.441001892089844,-58.5 C-33.441001892089844,-58.5 -39.5,83.4489974975586 -39.5,83.4489974975586 C-39.5,83.4489974975586 39.5,-83.4489974975586 39.5,-83.4489974975586 C39.5,-83.4489974975586 26.6200008392334,-79.05000305175781 26.6200008392334,-79.05000305175781 C26.6200008392334,-79.05000305175781 25.950000762939453,-77.23999786376953 25.950000762939453,-77.23999786376953z"></path></g><g opacity="1" transform="matrix(1,0,0,1,72.66000366210938,157.28900146484375)"><path fill="rgb(53,120,93)" fill-opacity="1" d=" M-15.6899995803833,9.859999656677246 C-15.6899995803833,9.859999656677246 -70.01000213623047,-15.029999732971191 -70.01000213623047,-15.029999732971191 C-70.01000213623047,-15.029999732971191 -72.41000366210938,-7.459000110626221 -72.41000366210938,-7.459000110626221 C-72.41000366210938,-7.459000110626221 -16.59000015258789,17.299999237060547 -16.59000015258789,17.299999237060547 C-16.59000015258789,17.299999237060547 -16.399999618530273,17.440000534057617 -16.399999618530273,17.440000534057617 C-16.399999618530273,17.440000534057617 72.41000366210938,-9.229999542236328 72.41000366210938,-9.229999542236328 C72.41000366210938,-9.229999542236328 72.19999694824219,-17.440000534057617 72.19999694824219,-17.440000534057617 C72.19999694824219,-17.440000534057617 -15.6899995803833,9.859999656677246 -15.6899995803833,9.859999656677246z"></path></g><g opacity="1" transform="matrix(1,0,0,1,0,0)"><path fill="rgb(114,140,86)" fill-opacity="1" d=" M140.24899291992188,-0.5440000295639038 C140.24899291992188,-0.5440000295639038 118.22799682617188,-0.12999999523162842 118.22799682617188,-0.12999999523162842 C118.22799682617188,-0.12999999523162842 116.6449966430664,28.80500030517578 116.2699966430664,29.18000030517578 C115.8949966430664,29.55500030517578 140.89500427246094,26.68000030517578 140.89500427246094,26.68000030517578 C140.89500427246094,26.68000030517578 140.24899291992188,-0.5440000295639038 140.24899291992188,-0.5440000295639038z"></path></g></g><g transform="matrix(0.8930715918540955,-0.4499146342277527,0.4499146342277527,0.8930715918540955,75.1358413696289,256.101806640625)" opacity="1" style="display: block;"><g opacity="1" transform="matrix(1,0,0,1,29.44499969482422,35.03900146484375)"><path fill="rgb(195,151,122)" fill-opacity="1" d=" M5.09499979019165,-10.979999542236328 C5.09499979019165,-10.979999542236328 -5.204999923706055,0.8899999856948853 -5.204999923706055,0.8899999856948853 C-5.204999923706055,0.8899999856948853 -9.524999618530273,5.870999813079834 -9.524999618530273,5.870999813079834 C-9.524999618530273,5.870999813079834 -4.005000114440918,10.979999542236328 -4.005000114440918,10.979999542236328 C-4.005000114440918,10.979999542236328 9.524999618530273,-7.709000110626221 9.524999618530273,-7.709000110626221 C9.524999618530273,-7.709000110626221 5.09499979019165,-10.979999542236328 5.09499979019165,-10.979999542236328z"></path></g><g opacity="1" transform="matrix(1,0,0,1,18.024999618530273,22.90399932861328)"><path fill="rgb(223,188,164)" fill-opacity="1" d=" M6.215000152587891,-18.006000518798828 C6.215000152587891,-18.006000518798828 -6.965000152587891,-13.024999618530273 -6.965000152587891,-13.024999618530273 C-6.965000152587891,-13.024999618530273 -12.324999809265137,-1.4040000438690186 -12.324999809265137,-1.4040000438690186 C-12.324999809265137,-1.4040000438690186 -5.534999847412109,14.524999618530273 -5.534999847412109,14.524999618530273 C-5.534999847412109,14.524999618530273 1.8949999809265137,18.006000518798828 1.8949999809265137,18.006000518798828 C1.8949999809265137,18.006000518798828 1.9049999713897705,17.9950008392334 1.9049999713897705,17.9950008392334 C1.9049999713897705,17.9950008392334 12.324999809265137,7.296000003814697 12.324999809265137,7.296000003814697 C12.324999809265137,7.296000003814697 6.215000152587891,-18.006000518798828 6.215000152587891,-18.006000518798828z"></path></g><g opacity="1" transform="matrix(1,0,0,1,23.05500030517578,15.225000381469727)"><path fill="rgb(138,102,81)" fill-opacity="1" d=" M11.994999885559082,8.253999710083008 C11.994999885559082,8.253999710083008 -7.554999828338623,-14.975000381469727 -7.554999828338623,-14.975000381469727 C-7.554999828338623,-14.975000381469727 -11.994999885559082,-5.3460001945495605 -11.994999885559082,-5.3460001945495605 C-11.994999885559082,-5.3460001945495605 7.295000076293945,14.975000381469727 7.295000076293945,14.975000381469727 C7.295000076293945,14.975000381469727 11.484999656677246,8.833999633789062 11.484999656677246,8.833999633789062 C11.484999656677246,8.833999633789062 11.994999885559082,8.253999710083008 11.994999885559082,8.253999710083008z"></path></g><g opacity="1" transform="matrix(1,0,0,1,10.09000015258789,37.42900085449219)"><path fill="rgb(195,151,122)" fill-opacity="1" d=" M9.829999923706055,3.4800000190734863 C9.829999923706055,3.4800000190734863 -4.389999866485596,-15.930000305175781 -4.389999866485596,-15.930000305175781 C-4.389999866485596,-15.930000305175781 -9.84000015258789,2.9509999752044678 -9.84000015258789,2.9509999752044678 C-9.84000015258789,2.9509999752044678 -0.8700000047683716,15.930000305175781 -0.8700000047683716,15.930000305175781 C-0.8700000047683716,15.930000305175781 9.84000015258789,3.4690001010894775 9.84000015258789,3.4690001010894775 C9.84000015258789,3.4690001010894775 9.829999923706055,3.4800000190734863 9.829999923706055,3.4800000190734863z"></path></g></g><g transform="matrix(0.9565674662590027,-0.291511207818985,0.291511207818985,0.9565674662590027,62.61347961425781,184.25521850585938)" opacity="1" style="display: block;"><g opacity="1" transform="matrix(1,0,0,1,39.119998931884766,30.815000534057617)"><path fill="rgb(153,194,108)" fill-opacity="1" d=" M6.449999809265137,-30.565000534057617 C6.449999809265137,-30.565000534057617 -33.95000076293945,23.145000457763672 -33.95000076293945,23.145000457763672 C-33.95000076293945,23.145000457763672 14.770000457763672,30.565000534057617 14.770000457763672,30.565000534057617 C14.770000457763672,30.565000534057617 30.691614151000977,-7.1832275390625 30.691614151000977,-7.1832275390625 C30.691614151000977,-7.1832275390625 6.449999809265137,-30.565000534057617 6.449999809265137,-30.565000534057617z"></path></g><g opacity="1" transform="matrix(1,0,0,1,38.47999954223633,54.685001373291016)"><path fill="rgb(115,141,86)" fill-opacity="1" d=" M-33.310001373291016,-0.7250000238418579 C-33.310001373291016,-0.7250000238418579 -33.310001373291016,-0.7250000238418579 -33.310001373291016,-0.7250000238418579 C-33.310001373291016,-0.7250000238418579 -13.920000076293945,38.17399978637695 -13.920000076293945,38.17399978637695 C-13.920000076293945,38.17399978637695 -2.9700000286102295,34.3849983215332 -2.9700000286102295,34.3849983215332 C-2.9700000286102295,34.3849983215332 32.038002014160156,-31.35789680480957 32.038002014160156,-31.35789680480957 C32.038002014160156,-31.35789680480957 -33.310001373291016,-0.7250000238418579 -33.310001373291016,-0.7250000238418579z"></path></g><g opacity="1" transform="matrix(1,0,0,1,53.80500030517578,51.67499923706055)"><path fill="rgb(90,117,60)" fill-opacity="1" d=" M16.169429779052734,-27.731689453125 C16.169429779052734,-27.731689453125 -29.2450008392334,37.125 -29.2450008392334,37.125 C-29.2450008392334,37.125 -11.654999732971191,35.80500030517578 -11.654999732971191,35.80500030517578 C-11.654999732971191,35.80500030517578 -1.5549999475479126,29.694000244140625 -1.5549999475479126,29.694000244140625 C-1.5549999475479126,29.694000244140625 23.855207443237305,-16.382606506347656 23.855207443237305,-16.382606506347656 C23.855207443237305,-16.382606506347656 16.169429779052734,-27.731689453125 16.169429779052734,-27.731689453125z"></path></g><g opacity="1" transform="matrix(1,0,0,1,26.25,75.73100280761719)"><path fill="rgb(53,120,93)" fill-opacity="1" d=" M-4.820000171661377,21.770000457763672 C-4.820000171661377,21.770000457763672 21.280000686645508,13.069999694824219 21.280000686645508,13.069999694824219 C21.280000686645508,13.069999694824219 26,5.638999938964844 26,5.638999938964844 C26,5.638999938964844 -1.690000057220459,13.069999694824219 -1.690000057220459,13.069999694824219 C-1.690000057220459,13.069999694824219 -21.079999923706055,-21.770000457763672 -21.079999923706055,-21.770000457763672 C-21.079999923706055,-21.770000457763672 -26,-15.3100004196167 -26,-15.3100004196167 C-26,-15.3100004196167 -4.820000171661377,21.770000457763672 -4.820000171661377,21.770000457763672z"></path></g></g><g transform="matrix(0.99201500415802,0.12611985206604004,-0.12611985206604004,0.99201500415802,121.94677734375,-7.196418762207031)" opacity="1" style="display: block;"><g opacity="1" transform="matrix(1,0,0,1,78.88500213623047,81.72100067138672)"><path fill="rgb(223,188,164)" fill-opacity="1" d=" M52.28499984741211,49.77000045776367 C52.28499984741211,49.77000045776367 35.654998779296875,-47.33000183105469 35.654998779296875,-47.33000183105469 C35.654998779296875,-47.33000183105469 8.015000343322754,-68.62000274658203 8.015000343322754,-68.62000274658203 C8.015000343322754,-68.62000274658203 -9.524999618530273,-53.790000915527344 -9.524999618530273,-53.790000915527344 C-9.524999618530273,-53.790000915527344 -45.94499969482422,-56.18000030517578 -45.94499969482422,-56.18000030517578 C-45.94499969482422,-56.18000030517578 -52.28499984741211,-50.40999984741211 -52.28499984741211,-50.40999984741211 C-52.28499984741211,-50.40999984741211 -39.10499954223633,-24.68000030517578 -39.10499954223633,-24.68000030517578 C-39.10499954223633,-24.68000030517578 -16.46500015258789,68.62000274658203 -16.46500015258789,68.62000274658203 C-16.46500015258789,68.62000274658203 16.844999313354492,59.43000030517578 16.844999313354492,59.43000030517578 C16.844999313354492,59.43000030517578 52.28499984741211,49.77000045776367 52.28499984741211,49.77000045776367z"></path></g><g opacity="1" transform="matrix(1,0,0,1,98.09500122070312,21.410999298095703)"><path fill="rgb(235,235,235)" fill-opacity="1" d=" M-11.194999694824219,-2.7699999809265137 C-11.194999694824219,-2.7699999809265137 16.44499969482422,12.979999542236328 16.44499969482422,12.979999542236328 C16.44499969482422,12.979999542236328 -0.03500000014901161,-9.010000228881836 -0.03500000014901161,-9.010000228881836 C-0.03500000014901161,-9.010000228881836 -13.595000267028809,-12.979999542236328 -13.595000267028809,-12.979999542236328 C-13.595000267028809,-12.979999542236328 -16.44499969482422,-8.3100004196167 -16.44499969482422,-8.3100004196167 C-16.44499969482422,-8.3100004196167 -11.194999694824219,-2.7699999809265137 -11.194999694824219,-2.7699999809265137z"></path></g><g opacity="1" transform="matrix(1,0,0,1,71.76599884033203,17.320999145507812)"><path fill="rgb(221,221,220)" fill-opacity="1" d=" M-14.475000381469727,3.7100000381469727 C-14.475000381469727,3.7100000381469727 0.5649999976158142,17.06999969482422 0.5649999976158142,17.06999969482422 C0.5649999976158142,17.06999969482422 15.135000228881836,1.3200000524520874 15.135000228881836,1.3200000524520874 C15.135000228881836,1.3200000524520874 12.734999656677246,-8.888999938964844 12.734999656677246,-8.888999938964844 C12.734999656677246,-8.888999938964844 -15.135000228881836,-17.06999969482422 -15.135000228881836,-17.06999969482422 C-15.135000228881836,-17.06999969482422 -14.475000381469727,3.7100000381469727 -14.475000381469727,3.7100000381469727z"></path></g><g opacity="1" transform="matrix(1,0,0,1,51.21099853515625,17.34600067138672)"><path fill="rgb(196,196,196)" fill-opacity="1" d=" M-21.1200008392334,3.684999942779541 C-21.1200008392334,3.684999942779541 -20.829999923706055,6.945000171661377 -20.829999923706055,6.945000171661377 C-20.829999923706055,6.945000171661377 -18.579999923706055,8.793999671936035 -18.579999923706055,8.793999671936035 C-18.579999923706055,8.793999671936035 21.069000244140625,17.094999313354492 21.069000244140625,17.094999313354492 C21.069000244140625,17.094999313354492 21.1200008392334,17.04599952697754 21.1200008392334,17.04599952697754 C21.1200008392334,17.04599952697754 5.420000076293945,-17.094999313354492 5.420000076293945,-17.094999313354492 C5.420000076293945,-17.094999313354492 -21.1200008392334,3.684999942779541 -21.1200008392334,3.684999942779541z"></path></g><g opacity="1" transform="matrix(1,0,0,1,34.040000915527344,88.00599670410156)"><path fill="rgb(195,151,122)" fill-opacity="1" d=" M8.819999694824219,-45.54499816894531 C8.819999694824219,-45.54499816894531 -1.100000023841858,-62.46500015258789 -1.100000023841858,-62.46500015258789 C-1.100000023841858,-62.46500015258789 -17.440000534057617,-34.6349983215332 -17.440000534057617,-34.6349983215332 C-17.440000534057617,-34.6349983215332 -9.239999771118164,-25.155000686645508 -9.239999771118164,-25.155000686645508 C-9.239999771118164,-25.155000686645508 -7.440000057220459,-0.20499999821186066 -7.440000057220459,-0.20499999821186066 C-7.440000057220459,-0.20499999821186066 -14.850000381469727,-8.524999618530273 -14.850000381469727,-8.524999618530273 C-14.850000381469727,-8.524999618530273 -20.239999771118164,-0.35499998927116394 -20.239999771118164,-0.35499998927116394 C-20.239999771118164,-0.35499998927116394 -29.270000457763672,2.984999895095825 -29.270000457763672,2.984999895095825 C-29.270000457763672,2.984999895095825 -21.850000381469727,24.635000228881836 -21.850000381469727,24.635000228881836 C-21.850000381469727,24.635000228881836 -14.210000038146973,22.725000381469727 -14.210000038146973,22.725000381469727 C-14.210000038146973,22.725000381469727 -9.239999771118164,23.725000381469727 -9.239999771118164,23.725000381469727 C-9.239999771118164,23.725000381469727 -11.5,37.28499984741211 -11.5,37.28499984741211 C-11.5,37.28499984741211 -9.947484016418457,57.9723014831543 -9.947484016418457,57.9723014831543 C-9.947484016418457,57.9723014831543 23.37566566467285,63.781654357910156 23.37566566467285,63.781654357910156 C23.37566566467285,63.781654357910156 29.67865753173828,64.6676025390625 29.67865753173828,64.6676025390625 C29.67865753173828,64.6676025390625 8.819999694824219,-45.54499816894531 8.819999694824219,-45.54499816894531z"></path></g><g opacity="1" transform="matrix(1,0,0,1,24.795000076293945,116.6760025024414)"><path fill="rgb(138,102,81)" fill-opacity="1" d=" M-4.965000152587891,-5.945000171661377 C-4.965000152587891,-5.945000171661377 -2.255000114440918,8.614999771118164 -2.255000114440918,8.614999771118164 C-2.255000114440918,8.614999771118164 4.965000152587891,-8.614999771118164 4.965000152587891,-8.614999771118164 C4.965000152587891,-8.614999771118164 -4.965000152587891,-5.945000171661377 -4.965000152587891,-5.945000171661377z"></path></g><g opacity="1" transform="matrix(1,0,0,1,17.170000076293945,96.41100311279297)"><path fill="rgb(138,102,81)" fill-opacity="1" d=" M-6.380000114440918,-2.75 C-6.380000114440918,-2.75 6.380000114440918,5.789999961853027 6.380000114440918,5.789999961853027 C6.380000114440918,5.789999961853027 3.0199999809265137,-5.789999961853027 3.0199999809265137,-5.789999961853027 C3.0199999809265137,-5.789999961853027 -6.380000114440918,-2.75 -6.380000114440918,-2.75z"></path></g><g opacity="1" transform="matrix(1,0,0,1,68.08499908447266,151.12100219726562)"><path fill="rgb(138,102,81)" fill-opacity="1" d=" M10.795000076293945,-5.320000171661377 C10.795000076293945,-5.320000171661377 -11.427282333374023,0.47370603680610657 -11.427282333374023,0.47370603680610657 C-11.427282333374023,0.47370603680610657 5.662304878234863,5.346280574798584 5.662304878234863,5.346280574798584 C5.662304878234863,5.346280574798584 10.795000076293945,-5.320000171661377 10.795000076293945,-5.320000171661377z"></path></g><g opacity="1" transform="matrix(1,0,0,1,16.594999313354492,56.236000061035156)"><path fill="rgb(143,143,143)" fill-opacity="1" d=" M-16.344999313354492,-11.545000076293945 C-16.344999313354492,-11.545000076293945 -2.7950000762939453,31.415000915527344 -2.7950000762939453,31.415000915527344 C-2.7950000762939453,31.415000915527344 1.534999966621399,29.864999771118164 1.534999966621399,29.864999771118164 C1.534999966621399,29.864999771118164 10.765000343322754,35.20500183105469 10.765000343322754,35.20500183105469 C10.765000343322754,35.20500183105469 13.425000190734863,1.3650000095367432 13.425000190734863,1.3650000095367432 C13.425000190734863,1.3650000095367432 2.7950000762939453,-4.864999771118164 2.7950000762939453,-4.864999771118164 C2.7950000762939453,-4.864999771118164 16.344999313354492,-30.69499969482422 16.344999313354492,-30.69499969482422 C16.344999313354492,-30.69499969482422 13.494999885559082,-35.20500183105469 13.494999885559082,-35.20500183105469 C13.494999885559082,-35.20500183105469 -16.344999313354492,-11.545000076293945 -16.344999313354492,-11.545000076293945z"></path></g></g><g class="ai" transform="matrix(0.9995179176330566,-0.03104771487414837,0.03104771487414837,0.9995179176330566,-7.778640270233154,6.741039276123047)" opacity="0.99" style="display: block;"><g opacity="1" transform="matrix(1,0,0,1,167.89500427246094,207.80499267578125)"><path fill="rgb(53,120,93)" fill-opacity="1" d=" M17.834999084472656,1.774999976158142 C17.834999084472656,1.774999976158142 -54.6150016784668,-44.244998931884766 -54.6150016784668,-44.244998931884766 C-54.6150016784668,-44.244998931884766 -58.80500030517578,-39.654998779296875 -58.80500030517578,-39.654998779296875 C-58.80500030517578,-39.654998779296875 16.145000457763672,8.444999694824219 16.145000457763672,8.444999694824219 C16.145000457763672,8.444999694824219 43.755001068115234,44.244998931884766 43.755001068115234,44.244998931884766 C43.755001068115234,44.244998931884766 58.80500030517578,-3.5250000953674316 58.80500030517578,-3.5250000953674316 C58.80500030517578,-3.5250000953674316 17.834999084472656,1.774999976158142 17.834999084472656,1.774999976158142z"></path></g></g><g transform="matrix(0.9940400123596191,0.10901578515768051,-0.10901578515768051,0.9940400123596191,119.99739074707031,-5.742951393127441)" opacity="1" style="display: block;"><g opacity="1" transform="matrix(1,0,0,1,94.3949966430664,181.8209991455078)"><path fill="rgb(196,196,196)" fill-opacity="1" d=" M-3.5450000762939453,-80.87999725341797 C-3.5450000762939453,-80.87999725341797 -27.915000915527344,-58.95000076293945 -27.915000915527344,-58.95000076293945 C-27.915000915527344,-58.95000076293945 -12.984999656677246,28 -12.984999656677246,28 C-12.984999656677246,28 14.375,53.18899917602539 14.375,53.18899917602539 C14.375,53.18899917602539 16.46500015258789,56.900001525878906 16.46500015258789,56.900001525878906 C16.46500015258789,56.900001525878906 15.515999794006348,60.59000015258789 15.515999794006348,60.59000015258789 C15.515999794006348,60.59000015258789 12.9350004196167,70.47000122070312 12.9350004196167,70.47000122070312 C12.9350004196167,70.47000122070312 27.782686233520508,80.97090911865234 27.782686233520508,80.97090911865234 C27.782686233520508,80.97090911865234 17.924999237060547,-25.3799991607666 17.924999237060547,-25.3799991607666 C17.924999237060547,-25.3799991607666 3.694999933242798,-79.30999755859375 3.694999933242798,-79.30999755859375 C3.694999933242798,-79.30999755859375 -3.5450000762939453,-80.87999725341797 -3.5450000762939453,-80.87999725341797z"></path></g><g opacity="1" transform="matrix(1,0,0,1,118.02999877929688,180.5749969482422)"><path fill="rgb(235,235,235)" fill-opacity="1" d=" M7.150000095367432,51.92499923706055 C7.150000095367432,51.92499923706055 19.940000534057617,18.225000381469727 19.940000534057617,18.225000381469727 C19.940000534057617,18.225000381469727 5.340000152587891,-68.44499969482422 5.340000152587891,-68.44499969482422 C5.340000152587891,-68.44499969482422 -15.8100004196167,-82.125 -15.8100004196167,-82.125 C-15.8100004196167,-82.125 -19.940000534057617,-78.06500244140625 -19.940000534057617,-78.06500244140625 C-19.940000534057617,-78.06500244140625 4.1347432136535645,82.18949890136719 4.1347432136535645,82.18949890136719 C4.1347432136535645,82.18949890136719 12.5,66.16500091552734 12.5,66.16500091552734 C12.5,66.16500091552734 8.289999961853027,59.32500076293945 8.289999961853027,59.32500076293945 C8.289999961853027,59.32500076293945 5.96999979019165,55.94599914550781 5.96999979019165,55.94599914550781 C5.96999979019165,55.94599914550781 7.150000095367432,51.92499923706055 7.150000095367432,51.92499923706055z"></path></g><g opacity="1" transform="matrix(1,0,0,1,117.54499816894531,237.45599365234375)"><path fill="rgb(68,96,36)" fill-opacity="1" d=" M8.774999618530273,2.444999933242798 C8.774999618530273,2.444999933242798 -7.633999824523926,4.954999923706055 -7.633999824523926,4.954999923706055 C-7.633999824523926,4.954999923706055 -8.774999618530273,-2.446000099182129 -8.774999618530273,-2.446000099182129 C-8.774999618530273,-2.446000099182129 7.635000228881836,-4.954999923706055 7.635000228881836,-4.954999923706055 C7.635000228881836,-4.954999923706055 8.774999618530273,2.444999933242798 8.774999618530273,2.444999933242798z"></path></g></g><g transform="matrix(0.99201500415802,0.12611985206604004,-0.12611985206604004,0.99201500415802,192.54051208496094,112.92704010009766)" opacity="1" style="display: block;"><g opacity="1" transform="matrix(1,0,0,1,12.109999656677246,4.489999771118164)"><path fill="rgb(138,102,81)" fill-opacity="1" d=" M11.859999656677246,0.36000001430511475 C11.859999656677246,0.36000001430511475 -10.850000381469727,4.239999771118164 -10.850000381469727,4.239999771118164 C-10.850000381469727,4.239999771118164 -11.859999656677246,-0.3700000047683716 -11.859999656677246,-0.3700000047683716 C-11.859999656677246,-0.3700000047683716 10.84000015258789,-4.239999771118164 10.84000015258789,-4.239999771118164 C10.84000015258789,-4.239999771118164 11.859999656677246,0.36000001430511475 11.859999656677246,0.36000001430511475z"></path></g></g><g transform="matrix(0.99201500415802,0.12611985206604004,-0.12611985206604004,0.99201500415802,168.62371826171875,45.109130859375)" opacity="1" style="display: block;"><g opacity="1" transform="matrix(1,0,0,1,69.3489990234375,33.89500045776367)"><path fill="rgb(143,143,143)" fill-opacity="1" d=" M-0.028999999165534973,-0.13500000536441803 C-0.028999999165534973,-0.13500000536441803 0.028999999165534973,0.13500000536441803 0.028999999165534973,0.13500000536441803 C0.028999999165534973,0.13500000536441803 0.0010000000474974513,-0.13500000536441803 0.0010000000474974513,-0.13500000536441803 C0.0010000000474974513,-0.13500000536441803 -0.028999999165534973,-0.13500000536441803 -0.028999999165534973,-0.13500000536441803z"></path></g><g opacity="1" transform="matrix(1,0,0,1,27.395000457763672,29.985000610351562)"><path fill="rgb(195,151,122)" fill-opacity="1" d=" M-25.295000076293945,-11.704999923706055 C-25.295000076293945,-11.704999923706055 10.555000305175781,24.954999923706055 10.555000305175781,24.954999923706055 C10.555000305175781,24.954999923706055 8.725000381469727,-6.275000095367432 8.725000381469727,-6.275000095367432 C8.725000381469727,-6.275000095367432 -4.465000152587891,-19.024999618530273 -4.465000152587891,-19.024999618530273 C-4.465000152587891,-19.024999618530273 6.715000152587891,-20.985000610351562 6.715000152587891,-20.985000610351562 C6.715000152587891,-20.985000610351562 12.475000381469727,-4.914999961853027 12.475000381469727,-4.914999961853027 C12.475000381469727,-4.914999961853027 17.826000213623047,3.9549999237060547 17.826000213623047,3.9549999237060547 C17.826000213623047,3.9549999237060547 25.295000076293945,-22.614999771118164 25.295000076293945,-22.614999771118164 C25.295000076293945,-22.614999771118164 11.038000106811523,-21.69700050354004 11.038000106811523,-21.69700050354004 C11.038000106811523,-21.69700050354004 6.715000152587891,-20.985000610351562 6.715000152587891,-20.985000610351562 C6.715000152587891,-20.985000610351562 -4.465000152587891,-19.024999618530273 -4.465000152587891,-19.024999618530273 C-4.465000152587891,-19.024999618530273 -8.736000061035156,-17.649999618530273 -8.736000061035156,-17.649999618530273 C-8.736000061035156,-17.649999618530273 -25.295000076293945,-11.704999923706055 -25.295000076293945,-11.704999923706055z"></path></g><g opacity="1" transform="matrix(1,0,0,1,8.354999542236328,11.045000076293945)"><path fill="rgb(143,143,143)" fill-opacity="1" d=" M9.220999717712402,-2.4570000171661377 C9.220999717712402,-2.4570000171661377 10.550999641418457,1.5429999828338623 10.550999641418457,1.5429999828338623 C10.550999641418457,1.5429999828338623 -6.263000011444092,8.42199993133545 -6.263000011444092,8.42199993133545 C-6.263000011444092,8.42199993133545 -8.11299991607666,3.742000102996826 -8.11299991607666,3.742000102996826 C-8.11299991607666,3.742000102996826 9.220999717712402,-2.4570000171661377 9.220999717712402,-2.4570000171661377z"></path></g><g opacity="1" transform="matrix(1,0,0,1,44.915000915527344,3.809999942779541)"><path fill="rgb(143,143,143)" fill-opacity="1" d=" M-8.324999809265137,-0.054999999701976776 C-8.324999809265137,-0.054999999701976776 -6.735000133514404,4.724999904632568 -6.735000133514404,4.724999904632568 C-6.735000133514404,4.724999904632568 7.769999980926514,4.309999942779541 7.769999980926514,4.309999942779541 C7.769999980926514,4.309999942779541 8.779999732971191,1.0700000524520874 8.779999732971191,1.0700000524520874 C8.779999732971191,1.0700000524520874 -8.324999809265137,-0.054999999701976776 -8.324999809265137,-0.054999999701976776z"></path></g><g opacity="1" transform="matrix(1,0,0,1,36.125,31.969999313354492)"><path fill="rgb(232,201,182)" fill-opacity="1" d=" M-2.015000104904175,-22.969999313354492 C-2.015000104904175,-22.969999313354492 6.125,-11.390000343322754 6.125,-11.390000343322754 C6.125,-11.390000343322754 13.194999694824219,20.479999542236328 13.194999694824219,20.479999542236328 C13.194999694824219,20.479999542236328 1.8250000476837158,22.969999313354492 1.8250000476837158,22.969999313354492 C1.8250000476837158,22.969999313354492 -4.335000038146973,-8.5 -4.335000038146973,-8.5 C-4.335000038146973,-8.5 -13.194999694824219,-21.010000228881836 -13.194999694824219,-21.010000228881836 C-13.194999694824219,-21.010000228881836 -2.015000104904175,-22.969999313354492 -2.015000104904175,-22.969999313354492z"></path></g><g opacity="1" transform="matrix(1,0,0,1,43.6349983215332,56.040000915527344)"><path fill="rgb(143,143,143)" fill-opacity="1" d=" M5.684999942779541,-3.5899999141693115 C5.684999942779541,-3.5899999141693115 -5.684999942779541,-1.100000023841858 -5.684999942779541,-1.100000023841858 C-5.684999942779541,-1.100000023841858 2.0250000953674316,3.5899999141693115 2.0250000953674316,3.5899999141693115 C2.0250000953674316,3.5899999141693115 5.684999942779541,-3.5899999141693115 5.684999942779541,-3.5899999141693115z"></path></g></g><g transform="matrix(0.9999322295188904,-0.011640735901892185,0.011640735901892185,0.9999322295188904,167.90647888183594,64.22809600830078)" opacity="1" style="display: none;"><g opacity="1" transform="matrix(1.0807733535766602,0,0,1.0807733535766602,4.489999771118164,11.979999542236328)"><path fill="rgb(43,43,43)" fill-opacity="1" d=" M0,-4.239999771118164 C2.3420000076293945,-4.239999771118164 4.239999771118164,-2.3420000076293945 4.239999771118164,0 C4.239999771118164,2.3420000076293945 2.3420000076293945,4.239999771118164 0,4.239999771118164 C-2.3420000076293945,4.239999771118164 -4.239999771118164,2.3420000076293945 -4.239999771118164,0 C-4.239999771118164,-2.3420000076293945 -2.3420000076293945,-4.239999771118164 0,-4.239999771118164z"></path></g><g opacity="1" transform="matrix(1.0807733535766602,0,0,1.0807733535766602,37.5099983215332,4.489999771118164)"><path fill="rgb(43,43,43)" fill-opacity="1" d=" M0,-4.239999771118164 C2.3420000076293945,-4.239999771118164 4.239999771118164,-2.3420000076293945 4.239999771118164,0 C4.239999771118164,2.3420000076293945 2.3420000076293945,4.239999771118164 0,4.239999771118164 C-2.3420000076293945,4.239999771118164 -4.239999771118164,2.3420000076293945 -4.239999771118164,0 C-4.239999771118164,-2.3420000076293945 -2.3420000076293945,-4.239999771118164 0,-4.239999771118164z"></path></g></g><g transform="matrix(0.99201500415802,0.12611985206604004,-0.12611985206604004,0.99201500415802,178.025390625,64.79203033447266)" opacity="1" style="display: block;"><g opacity="1" transform="matrix(1.022090196609497,0,0,1.022090196609497,4.489999771118164,11.979999542236328)"><path fill="rgb(43,43,43)" fill-opacity="1" d=" M0,-4.239999771118164 C2.3420000076293945,-4.239999771118164 4.239999771118164,-2.3420000076293945 4.239999771118164,0 C4.239999771118164,2.3420000076293945 2.3420000076293945,4.239999771118164 0,4.239999771118164 C-2.3420000076293945,4.239999771118164 -4.239999771118164,2.3420000076293945 -4.239999771118164,0 C-4.239999771118164,-2.3420000076293945 -2.3420000076293945,-4.239999771118164 0,-4.239999771118164z"></path></g><g opacity="1" transform="matrix(1.022090196609497,0,0,1.022090196609497,37.5099983215332,4.489999771118164)"><path fill="rgb(43,43,43)" fill-opacity="1" d=" M0,-4.239999771118164 C2.3420000076293945,-4.239999771118164 4.239999771118164,-2.3420000076293945 4.239999771118164,0 C4.239999771118164,2.3420000076293945 2.3420000076293945,4.239999771118164 0,4.239999771118164 C-2.3420000076293945,4.239999771118164 -4.239999771118164,2.3420000076293945 -4.239999771118164,0 C-4.239999771118164,-2.3420000076293945 -2.3420000076293945,-4.239999771118164 0,-4.239999771118164z"></path></g></g><g transform="matrix(1,0,0,1,169.02999877929688,64.10199737548828)" opacity="1" style="display: none;"><g opacity="1" transform="matrix(1,0,0,1,4.489999771118164,11.979999542236328)"><path fill="rgb(43,43,43)" fill-opacity="1" d=" M0,-4.239999771118164 C2.3420000076293945,-4.239999771118164 4.239999771118164,-2.3420000076293945 4.239999771118164,0 C4.239999771118164,2.3420000076293945 2.3420000076293945,4.239999771118164 0,4.239999771118164 C-2.3420000076293945,4.239999771118164 -4.239999771118164,2.3420000076293945 -4.239999771118164,0 C-4.239999771118164,-2.3420000076293945 -2.3420000076293945,-4.239999771118164 0,-4.239999771118164z"></path></g><g opacity="1" transform="matrix(1,0,0,1,37.5099983215332,4.489999771118164)"><path fill="rgb(43,43,43)" fill-opacity="1" d=" M0,-4.239999771118164 C2.3420000076293945,-4.239999771118164 4.239999771118164,-2.3420000076293945 4.239999771118164,0 C4.239999771118164,2.3420000076293945 2.3420000076293945,4.239999771118164 0,4.239999771118164 C-2.3420000076293945,4.239999771118164 -4.239999771118164,2.3420000076293945 -4.239999771118164,0 C-4.239999771118164,-2.3420000076293945 -2.3420000076293945,-4.239999771118164 0,-4.239999771118164z"></path></g></g><g transform="matrix(0.997658908367157,-0.0683869794011116,0.0683869794011116,0.997658908367157,205.17140197753906,197.27850341796875)" opacity="1" style="display: none;"><g opacity="1" transform="matrix(1,0,0,1,0,0)"><path stroke-linecap="butt" stroke-linejoin="miter" fill-opacity="0" stroke-miterlimit="4" stroke="rgb(42,42,42)" stroke-opacity="1" stroke-width="4" d=" M-28,-119 C-28,-119 -22.5,-116.5 -22.5,-116.5 C-22.5,-116.5 -18.5,-120.5 -18.5,-120.5"></path></g><g opacity="1" transform="matrix(1,0,0,1,0,0)"><path stroke-linecap="butt" stroke-linejoin="miter" fill-opacity="0" stroke-miterlimit="4" stroke="rgb(42,42,42)" stroke-opacity="1" stroke-width="4" d=" M7.25,-123 C7.25,-123 12.25,-121.25 12.25,-121.25 C12.25,-121.25 15.75,-125.75 15.75,-125.75"></path></g></g></g></svg>